<?xml version="1.0" encoding="UTF-8"?>
<svg width="70px" height="90px" viewBox="0 0 70 90" version="1.1" xmlns="http://www.w3.org/2000/svg" xmlns:xlink="http://www.w3.org/1999/xlink">
    <!-- Generator: Sketch 63.1 (92452) - https://sketch.com -->
    <title>noun_Backpack_647315</title>
    <desc>Created with Sketch.</desc>
    <g id="Page-1" stroke="none" stroke-width="1" fill="none" fill-rule="evenodd">
        <g id="noun_Backpack_647315" fill="#000000" fill-rule="nonzero">
            <path d="M46.423,13.126 L46.423,12.42 C46.423,5.432 41.512,0.162 35,0.162 C28.488,0.162 23.577,5.432 23.577,12.42 L23.577,13.126 C9.97,17.87 0.165,30.795 0.165,45.997 L0.165,88.166 C0.165,89.18 0.986,90 1.998,90 L68.002,90 C69.016,90 69.835,89.18 69.835,88.166 L69.835,45.997 C69.835,30.795 60.029,17.87 46.423,13.126 Z M42.726,12.056 C37.545,10.877 32.563,10.852 27.274,12.056 C27.639,1.088 42.36,1.088 42.726,12.056 Z M66.312,64.332 C66.312,65.345 65.492,66.165 64.479,66.165 L62.502,66.165 L62.502,73.499 C62.502,74.513 61.682,75.332 60.668,75.332 C59.654,75.332 58.835,74.513 58.835,73.499 L58.835,66.165 L5.525,66.165 C4.513,66.165 3.692,65.345 3.692,64.332 C3.692,63.318 4.513,62.498 5.525,62.498 L64.479,62.498 C65.491,62.498 66.312,63.318 66.312,64.332 Z" id="Shape"></path>
        </g>
    </g>
</svg>