<?xml version="1.0" encoding="UTF-8"?>
<svg width="80px" height="80px" viewBox="0 0 80 80" version="1.1" xmlns="http://www.w3.org/2000/svg" xmlns:xlink="http://www.w3.org/1999/xlink">
    <!-- Generator: Sketch 63.1 (92452) - https://sketch.com -->
    <title>noun_Monster ball_1455777</title>
    <desc>Created with Sketch.</desc>
    <g id="Page-1" stroke="none" stroke-width="1" fill="none" fill-rule="evenodd">
        <g id="noun_Monster-ball_1455777" fill="#000000" fill-rule="nonzero">
            <g id="Group">
                <path d="M40,59.3 C30.5,59.3 22.6,52.5 21,43.5 L0.8,43.5 C2.6,63.6 19.5,79.3 40,79.3 C60.5,79.3 77.4,63.5 79.2,43.5 L59,43.5 C57.4,52.5 49.5,59.3 40,59.3 Z" id="Path"></path>
                <path d="M40,20.7 C49.5,20.7 57.4,27.5 59,36.5 L79.2,36.5 C77.4,16.4 60.5,0.7 40,0.7 C19.5,0.7 2.6,16.4 0.8,36.5 L21,36.5 C22.6,27.5 30.5,20.7 40,20.7 Z" id="Path"></path>
                <path d="M40,30.7 C36.1,30.7 32.7,33.1 31.3,36.5 C30.9,37.6 30.6,38.8 30.6,40 C30.6,41.2 30.8,42.4 31.3,43.5 C32.7,46.9 36,49.3 40,49.3 C44,49.3 47.3,46.9 48.7,43.5 C49.1,42.4 49.4,41.2 49.4,40 C49.4,38.8 49.2,37.6 48.7,36.5 C47.3,33.1 43.9,30.7 40,30.7 Z" id="Path"></path>
            </g>
        </g>
    </g>
</svg>