<?xml version="1.0" encoding="UTF-8"?>
<svg width="127px" height="127px" viewBox="0 0 127 127" version="1.1" xmlns="http://www.w3.org/2000/svg" xmlns:xlink="http://www.w3.org/1999/xlink">
    <!-- Generator: Sketch 63.1 (92452) - https://sketch.com -->
    <title>pokeball copy</title>
    <desc>Created with Sketch.</desc>
    <g id="Page-1" stroke="none" stroke-width="1" fill="none" fill-rule="evenodd">
        <g id="pokeball-copy" fill-rule="nonzero">
            <path d="M2,2 C2,36.061 29.609,63.668 63.667,63.668 C97.725,63.668 125.334,36.061 125.334,2 L2,2 Z" id="Path" fill="#33363A" transform="translate(63.667000, 32.834000) scale(1, -1) translate(-63.667000, -32.834000) "></path>
            <path d="M63.167,0 C28.336,0 0,28.336 0,63.166 C0,97.997 28.336,126.334 63.167,126.334 C97.998,126.334 126.334,97.997 126.334,63.166 C126.334,28.336 97.998,0 63.167,0 Z M63.167,3 C95.84,3 122.495,29.183 123.296,61.666 L3.038,61.666 C3.839,29.183 30.494,3 63.167,3 Z M63.167,123.334 C30.494,123.334 3.839,97.15 3.038,64.666 L123.296,64.666 C122.495,97.15 95.84,123.334 63.167,123.334 Z" id="Shape" fill="#33363A"></path>
            <circle id="Oval" fill="#FFFFFF" cx="63.167" cy="63.167" r="16.764"></circle>
            <path d="M63.167,81.432 C58.289,81.432 53.702,79.532 50.252,76.082 C43.132,68.962 43.132,57.375 50.252,50.252 C57.374,43.132 68.96,43.132 76.081,50.252 L76.081,50.252 C79.531,53.703 81.432,58.29 81.432,63.168 C81.432,68.046 79.532,72.633 76.081,76.083 C72.632,79.532 68.046,81.432 63.167,81.432 Z M63.167,47.91 C59.258,47.91 55.35,49.397 52.374,52.373 C46.424,58.326 46.424,68.01 52.374,73.961 C55.257,76.844 59.09,78.432 63.167,78.432 C67.244,78.432 71.077,76.844 73.959,73.961 C76.842,71.078 78.431,67.245 78.431,63.168 C78.431,59.091 76.843,55.258 73.959,52.374 C70.985,49.398 67.076,47.91 63.167,47.91 Z" id="Shape" fill="#33363A"></path>
            <path d="M68.871,68.87 C65.722,72.016 60.614,72.016 57.467,68.87 C54.318,65.72 54.319,60.615 57.467,57.467 C60.615,54.317 65.722,54.319 68.87,57.467 C72.019,60.615 72.019,65.72 68.871,68.87 Z" id="Path" fill="#FFFFFF"></path>
            <path d="M63.168,72.725 C60.718,72.725 58.27,71.794 56.406,69.931 C52.677,66.201 52.677,60.134 56.406,56.406 C58.211,54.599 60.613,53.604 63.167,53.604 C63.167,53.604 63.167,53.604 63.167,53.604 C65.722,53.604 68.124,54.6 69.93,56.406 C73.658,60.133 73.658,66.2 69.931,69.93 C69.931,69.93 69.931,69.931 69.93,69.931 C68.066,71.794 65.617,72.725 63.168,72.725 Z M63.167,56.604 C61.414,56.604 59.766,57.287 58.527,58.527 C55.968,61.086 55.968,65.25 58.527,67.809 C61.085,70.366 65.25,70.366 67.81,67.809 C70.368,65.249 70.367,61.085 67.809,58.527 C66.57,57.288 64.921,56.605 63.167,56.604 L63.167,56.604 Z" id="Shape" fill="#33363A"></path>
        </g>
    </g>
</svg>